<svg width="14" height="17" viewBox="0 0 14 17" fill="none" xmlns="http://www.w3.org/2000/svg">
<path d="M6.89428 8.08322C8.00476 8.08322 8.96635 7.68493 9.75204 6.89912C10.5377 6.11343 10.936 5.15209 10.936 4.04148C10.936 2.93125 10.5377 1.96979 9.75191 1.18384C8.9661 0.398284 8.00463 0 6.89428 0C5.78366 0 4.82233 0.398284 4.03664 1.18397C3.25095 1.96966 2.85254 2.93112 2.85254 4.04148C2.85254 5.15209 3.25095 6.11356 4.03677 6.89924C4.82258 7.6848 5.78405 8.08322 6.89428 8.08322Z" fill="white"/>
<path d="M13.9661 12.9033C13.9434 12.5763 13.8976 12.2197 13.8301 11.843C13.762 11.4635 13.6743 11.1048 13.5693 10.777C13.4609 10.4381 13.3134 10.1034 13.1311 9.78271C12.9419 9.44985 12.7196 9.16 12.4702 8.92149C12.2094 8.67197 11.8902 8.47136 11.5209 8.32502C11.153 8.17946 10.7452 8.10572 10.3091 8.10572C10.1378 8.10572 9.97209 8.176 9.65216 8.3843C9.45526 8.51271 9.22494 8.66122 8.96787 8.82547C8.74805 8.96553 8.45026 9.09676 8.08245 9.21556C7.72359 9.33168 7.35924 9.39057 6.99962 9.39057C6.63999 9.39057 6.27576 9.33168 5.91653 9.21556C5.5491 9.09689 5.25131 8.96566 5.03175 8.8256C4.77711 8.66288 4.54666 8.51437 4.34682 8.38417C4.02727 8.17588 3.86148 8.10559 3.69018 8.10559C3.25387 8.10559 2.84624 8.17946 2.47843 8.32515C2.10946 8.47123 1.79004 8.67184 1.529 8.92162C1.27973 9.16026 1.05736 9.44998 0.868391 9.78271C0.686212 10.1034 0.538727 10.4379 0.430163 10.7771C0.32531 11.105 0.237614 11.4635 0.169505 11.843C0.102036 12.2191 0.0562028 12.576 0.0335425 12.9037C0.0112662 13.2248 0 13.558 0 13.8946C0 14.7706 0.278453 15.4797 0.827551 16.0027C1.36986 16.5187 2.08744 16.7805 2.96006 16.7805H11.0399C11.9126 16.7805 12.6299 16.5189 13.1723 16.0027C13.7215 15.4801 14 14.7708 14 13.8945C13.9999 13.5564 13.9885 13.2229 13.9661 12.9033Z" fill="white"/>
</svg>
